<svg id="Layer_1" data-name="Layer 1" xmlns="http://www.w3.org/2000/svg" viewBox="0 0 541.5 560"><defs><style>.cls-1{fill:#0071bc;}.cls-2,.cls-4{fill:#fff;}.cls-3{fill:#333;}.cls-4{font-size:109.47px;font-family:MyriadPro-Regular, Myriad Pro;}.cls-5{letter-spacing:-0.01em;}.cls-6{letter-spacing:-0.05em;}.cls-7{fill:#1a1a1a;}</style></defs><title>logo</title><path class="cls-1" d="M1111.83,477.61,813.32,499.26h0c-112.59-102-225.71,5.18-236.9,16.32C584.15,373.13,702.12,260,846.5,260,977.79,260,1087.24,353.54,1111.83,477.61Z" transform="translate(-575.5 -260)"/><path class="cls-2" d="M813.31,499.26,576.36,516.44c0-.29,0-.58,0-.86C587.6,504.44,700.72,397.3,813.31,499.26Z" transform="translate(-575.5 -260)"/><path class="cls-2" d="M1111.83,477.61h0l-298.5,21.64Z" transform="translate(-575.5 -260)"/><path class="cls-3" d="M1117,534.65C1114.75,682.13,994.5,801,846.5,801c-134.86,0-246.67-98.69-267.14-227.78-.17-1-.32-2-.46-3l234.91-15.54c.6.52,1.2,1.05,1.79,1.6A244.55,244.55,0,0,1,833,573.5C957.06,709.3,1114.21,537.68,1117,534.65Z" transform="translate(-575.5 -260)"/><path class="cls-2" d="M1117,534.61v0h0c-2.76,3-159.91,174.65-284,38.85a244.55,244.55,0,0,0-17.36-17.24c-.59-.55-1.19-1.08-1.79-1.6L872,550.81h0c56.7,32.76,115.83,15.37,161.18-10.66Z" transform="translate(-575.5 -260)"/><path class="cls-2" d="M813.31,499.26,576.36,516.44l-.86.06.91-.92C587.6,504.44,700.72,397.3,813.31,499.26Z" transform="translate(-575.5 -260)"/><path class="cls-1" d="M1111.82,477.62c-.67.75-32.52,36.09-78.59,62.53L872.05,550.81h0c-14.08-8.14-28-19.36-41.54-34.31q-8.58-9.48-17.18-17.24Z" transform="translate(-575.5 -260)"/><path class="cls-2" d="M1111.83,477.61h0l-298.5,21.64Z" transform="translate(-575.5 -260)"/><path class="cls-1" d="M1033.23,540.15c-45.35,26-104.48,43.42-161.18,10.66Z" transform="translate(-575.5 -260)"/><path class="cls-3" d="M813.81,554.66,578.9,570.2C599.14,551.26,706.46,460.46,813.81,554.66Z" transform="translate(-575.5 -260)"/><path class="cls-2" d="M1117,534.61l0,0h0c-2.76,3-159.91,174.65-284,38.85a244.55,244.55,0,0,0-17.36-17.24c-.59-.55-1.19-1.08-1.79-1.6L872,550.81h0c56.7,32.76,115.83,15.37,161.18-10.66l83.74-5.54Z" transform="translate(-575.5 -260)"/><text class="cls-4" transform="translate(100.5 183.63) scale(1.09 1)"><tspan class="cls-5">D</tspan><tspan class="cls-6" x="71.38" y="0">A</tspan><tspan x="132.57" y="0">VID</tspan></text><circle class="cls-2" cx="156.5" cy="424" r="16"/><circle class="cls-2" cx="419.5" cy="424" r="16"/><circle class="cls-2" cx="284.5" cy="424" r="16"/><path class="cls-7" d="M675.34,740S672,807,635,820l81-52.51" transform="translate(-575.5 -260)"/></svg>